<?xml version='1.0' encoding='UTF-8'?>
<svg x="0px" y="0px" viewBox="0 0 32 32" version="1.1" xmlns="http://www.w3.org/2000/svg" xmlns:xlink="http://www.w3.org/1999/xlink" xml:space="preserve" id="Layer_1" style="enable-background:new 0 0 32 32">
  <style type="text/css">
	.Blue{fill:#1177D7;}
	.Yellow{fill:#FFB115;}
	.Red{fill:#D11C1C;}
	.Green{fill:#039C23;}
	.Black{fill:#727272;}
	.White{fill:#FFFFFF;}
	.st0{opacity:0.5;}
	.st1{opacity:0.75;}
	.st2{display:none;}
	.st3{display:inline;fill:#FFB115;}
	.st4{display:inline;}
	.st5{display:inline;opacity:0.75;}
	.st6{display:inline;opacity:0.5;}
	.st7{display:inline;fill:#039C23;}
	.st8{display:inline;fill:#D11C1C;}
	.st9{display:inline;fill:#1177D7;}
	.st10{display:inline;fill:#FFFFFF;}
</style>
  <g id="KPI_x5F_Scorecard">
    <g class="st1">
      <path d="M8,12h12v2H8V12z M8,18h9.2h1.7H20v-2H8V18z M8,10h12V8H8V10z" class="Black" />
    </g>
    <path d="M11.2,24H4V2h20v17.2l2-2V1c0-0.5-0.5-1-1-1H3C2.5,0,2,0.5,2,1v24c0,0.5,0.5,1,1,1h6.2L11.2,24z" class="Black" />
    <polygon points="8,30 18,20 22,24 32,14 32,30  " class="Green" />
  </g>
</svg>