<?xml version='1.0' encoding='UTF-8'?>
<svg x="0px" y="0px" viewBox="0 0 16 16" version="1.1" xmlns="http://www.w3.org/2000/svg" xmlns:xlink="http://www.w3.org/1999/xlink" xml:space="preserve" id="Layer_1" style="enable-background:new 0 0 16 16">
  <style type="text/css">
	.Green{fill:#119B49;}
	.Blue{fill:#3475BA;}
	.Black{fill:#737373;}
</style>
  <rect x="0" y="1" width="16" height="3" rx="0" ry="0" class="Green" />
  <polygon points="15,4 15,14 1,14 1,4 0,4 0,15 16,15 16,4 " class="Black" />
  <path d="M6,7v4h1v1H4v-1h1V7H4V6h3v1H6z M9.6,6H7.5v1H8v4H7.5v1h2.1c1.5,0,2.4-0.6,2.4-2.4V8.4C12,6.7,11.2,6,9.6,6z   M11,9.6c0,1-0.3,1.4-1.3,1.4H9V7h0.7C10.6,7,11,7.3,11,8.4V9.6z" class="Blue" />
</svg>