<?xml version='1.0' encoding='UTF-8'?>
<svg x="0px" y="0px" viewBox="0 0 32 32" version="1.1" xmlns="http://www.w3.org/2000/svg" xmlns:xlink="http://www.w3.org/1999/xlink" xml:space="preserve" id="ModifyTableStyle" style="enable-background:new 0 0 32 32">
  <style type="text/css">
	.Blue{fill:#1177D7;}
	.Black{fill:#727272;}
	.st0{opacity:0.5;}
</style>
  <g class="st0">
    <path d="M28,10h-8V4h8V10z M26.3,14.9c0.5-0.5,1.1-0.7,1.7-0.8v-2h-8v6h3.2L26.3,14.9z M0,26h8v-6H0V26z M18,23.2V20   h-8v6h5.2L18,23.2z" class="Black" />
  </g>
  <path d="M0,4h8v6H0V4z M0,18h8v-6H0V18z M10,10h8V4h-8V10z M10,18h8v-6h-8V18z M29,23l-8,8l-4-4l8-8L29,23z M30,22  l1.7-1.7c0.4-0.4,0.4-1,0-1.3l-2.7-2.7c-0.4-0.4-1-0.4-1.3,0L26,18L30,22z M16,28v4h4L16,28z" class="Blue" />
</svg>