<?xml version='1.0' encoding='UTF-8'?>
<svg x="0px" y="0px" viewBox="0 0 32 32" version="1.1" xmlns="http://www.w3.org/2000/svg" xmlns:xlink="http://www.w3.org/1999/xlink" xml:space="preserve" id="Print_Titles" style="enable-background:new 0 0 32 32">
  <style type="text/css">
	.Black{fill:#727272;}
	.Green{fill:#039C23;}
	.st0{opacity:0.5;}
</style>
  <g class="st0">
    <path d="M0,10h8v6H0V10z M0,24h8v-6H0V24z M14,10h-4v4h4V10z" class="Black" />
  </g>
  <path d="M18,8h-8V2h8V8z M0,8h8V2H0V8z M20,2v6h8V2H20z" class="Green" />
  <path d="M18,18h-2v-8h10v8h-2v-6h-6V18z M32,18v10c0,1.1-0.9,2-2,2h-4v2H16v-2h-4c-1.1,0-2-0.9-2-2V18  c0-1.1,0.9-2,2-2h2v3c0,0.6,0.4,1,1,1h12c0.6,0,1-0.4,1-1v-3h2C31.1,16,32,16.9,32,18z M24,30v-4h-6v4H24z" class="Black" />
</svg>