<?xml version='1.0' encoding='UTF-8'?>
<svg x="0px" y="0px" viewBox="0 0 32 32" version="1.1" xmlns="http://www.w3.org/2000/svg" xmlns:xlink="http://www.w3.org/1999/xlink" xml:space="preserve" id="Show_All_Subtotals_At_Bottom_Pivot_Table" style="enable-background:new 0 0 32 32">
  <style type="text/css">
	.Black{fill:#727272;}
	.Blue{fill:#1177D7;}
	.st0{opacity:0.75;}
</style>
  <path d="M27,2H5C4.4,2,4,2.4,4,3v26c0,0.6,0.4,1,1,1h22c0.6,0,1-0.4,1-1V3C28,2.4,27.6,2,27,2z M26,28H6V4h20V28z" class="Black" />
  <g class="st0">
    <path d="M18,10h-8V8h8V10z M24,8h-4v2h4V8z M18,18h-8v2h8V18z M24,18h-4v2h4V18z" class="Black" />
  </g>
  <path d="M18,14H8v-2h10V14z M24,12h-4v2h4V12z M18,22H8v2h10V22z M24,22h-4v2h4V22z" class="Blue" />
</svg>